HIERARCHY
ROOT Hips
{
 OFFSET 0.000000 0.000000 0.000000
 CHANNELS 6 Xposition Yposition Zposition Yrotation Xrotation Zrotation
 JOINT Chest
 {
  OFFSET 0.000000 9.585900 0.002600
  CHANNELS 3 Yrotation Xrotation Zrotation
  JOINT Chest2
  {
   OFFSET 0.000000 9.601200 -0.005300
   CHANNELS 3 Yrotation Xrotation Zrotation
   JOINT Chest3
   {
    OFFSET 0.000000 9.561800 0.000000
    CHANNELS 3 Yrotation Xrotation Zrotation
    JOINT Chest4
    {
     OFFSET 0.000000 9.552100 0.000000
     CHANNELS 3 Yrotation Xrotation Zrotation
     JOINT Neck
     {
      OFFSET 0.000000 14.453000 0.000000
      CHANNELS 3 Yrotation Xrotation Zrotation
      JOINT Head
      {
       OFFSET 0.000000 8.936500 -0.011300
       CHANNELS 3 Yrotation Xrotation Zrotation
       End Site
       {
        OFFSET 0.000000 17.073600 -0.006000
       }
      }
     }
     JOINT RightCollar
     {
      OFFSET -2.921100 9.558500 0.000000
      CHANNELS 3 Yrotation Xrotation Zrotation
      JOINT RightShoulder
      {
       OFFSET -13.519700 0.000000 0.000000
       CHANNELS 3 Yrotation Xrotation Zrotation
       JOINT RightElbow
       {
        OFFSET 0.000000 -29.696600 0.000000
        CHANNELS 3 Yrotation Xrotation Zrotation
        JOINT RightWrist
        {
         OFFSET 0.000000 -24.004700 0.000000
         CHANNELS 3 Yrotation Xrotation Zrotation
         End Site
         {
          OFFSET 0.000000 -17.728500 0.000000
         }
        }
       }
      }
     }
     JOINT LeftCollar
     {
      OFFSET 2.921100 9.558500 0.000000
      CHANNELS 3 Yrotation Xrotation Zrotation
      JOINT LeftShoulder
      {
       OFFSET 13.519700 0.000000 0.000000
       CHANNELS 3 Yrotation Xrotation Zrotation
       JOINT LeftElbow
       {
        OFFSET 0.000000 -29.696600 0.000000
        CHANNELS 3 Yrotation Xrotation Zrotation
        JOINT LeftWrist
        {
         OFFSET 0.000000 -24.004700 0.000000
         CHANNELS 3 Yrotation Xrotation Zrotation
         End Site
         {
          OFFSET 0.000000 -17.728500 0.000000
         }
        }
       }
      }
     }
    }
   }
  }
 }
 JOINT RightHip
 {
  OFFSET -7.771700 -0.012900 -0.001300
  CHANNELS 3 Yrotation Xrotation Zrotation
  JOINT RightKnee
  {
   OFFSET 0.000000 -40.869800 0.001200
   CHANNELS 3 Yrotation Xrotation Zrotation
   JOINT RightAnkle
   {
    OFFSET 0.000000 -39.717900 0.002100
    CHANNELS 3 Yrotation Xrotation Zrotation
    JOINT RightToe
    {
     OFFSET 0.000000 -4.965400 11.033500
     CHANNELS 3 Yrotation Xrotation Zrotation
     End Site
     {
      OFFSET 0.000000 -1.423100 5.872300
     }
    }
   }
  }
 }
 JOINT LeftHip
 {
  OFFSET 7.771700 -0.012900 -0.001300
  CHANNELS 3 Yrotation Xrotation Zrotation
  JOINT LeftKnee
  {
   OFFSET 0.000000 -40.869800 0.001200
   CHANNELS 3 Yrotation Xrotation Zrotation
   JOINT LeftAnkle
   {
    OFFSET 0.000000 -39.717900 0.002100
    CHANNELS 3 Yrotation Xrotation Zrotation
    JOINT LeftToe
    {
     OFFSET 0.000000 -4.965400 11.033500
     CHANNELS 3 Yrotation Xrotation Zrotation
     End Site
     {
      OFFSET 0.000000 -1.423100 5.872300
     }
    }
   }
  }
 }
}
MOTION
Frames: 5
Frame Time: 0.008333
0.000000 85.388000 0.000000 0.000000 -5.767877 0.000000 0.000000 11.653817 0.000000 0.000000 -5.885947 0.000000 0.000000 -0.000000 0.000000 0.000000 -0.000000 0.000000 0.000000 12.528835 0.000000 0.000000 0.711642 0.000000 0.000000 -0.000000 0.000000 0.000000 0.000000 -90.000000 0.000000 -2.309062 0.000000 0.000000 2.309062 0.000000 0.000000 -0.000000 0.000000 0.000000 -0.000000 90.000000 0.000000 -2.309062 0.000000 0.000000 2.309062 0.000000 0.000000 8.520406 0.000000 0.000000 1.905762 0.000000 -0.000000 -4.658285 0.000000 0.000000 -0.000000 0.000000 0.000000 8.520406 0.000000 0.000000 1.905762 0.000000 -0.000000 -4.658285 0.000000 0.000000 -0.000000 0.000000
-12.175817 52.537862 13.680739 -179.190283 -19.584885 -2.943977 0.814933 15.759516 -0.836189 0.072189 1.495365 -0.110215 0.135711 2.530863 -0.108517 0.638248 13.925872 -0.726549 -2.007772 18.706590 -0.114409 -2.093217 -5.972912 0.331436 0.658547 -1.235968 3.238416 4.305852 -7.860174 -6.052863 -107.934837 -74.135626 143.712174 -6.845897 -32.536990 -17.315656 -4.755757 -1.119960 0.826579 0.606837 -7.204667 11.885441 97.174028 -59.744527 -139.038626 -1.731665 -11.413078 10.559357 4.957233 -60.205825 9.790530 173.659983 84.945302 175.129988 -13.096816 -24.229358 10.190540 0.006260 0.124079 -0.042203 2.230216 -58.108296 -0.962333 122.215637 77.286216 121.040632 -5.599735 -19.655253 -2.100605 0.034522 0.169419 -0.011595
-12.173187 52.551781 13.688756 -179.197878 -19.601452 -2.955102 0.833549 15.783262 -0.791926 0.069389 1.494181 -0.111149 0.133952 2.531890 -0.118483 0.654912 13.954885 -0.663514 -2.050363 18.672080 -0.174499 -2.101741 -6.001494 0.323586 0.661085 -1.232993 3.235007 4.280303 -7.876024 -6.103520 -107.723587 -74.143649 143.493972 -6.848808 -32.432008 -17.275037 -4.776416 -1.149774 0.771433 0.563365 -7.190226 12.002115 97.073989 -59.744488 -138.925414 -1.757758 -11.123802 10.447880 4.934133 -60.163429 9.850085 173.502494 84.995137 174.962963 -13.214561 -24.239846 10.218504 -0.009281 0.129469 -0.033191 2.217505 -58.090184 -0.939628 122.183153 77.288347 121.011081 -5.590132 -19.640091 -2.094608 0.028051 0.158945 -0.019041
-12.169867 52.567912 13.698604 -179.202481 -19.613870 -2.969418 0.850570 15.803543 -0.743409 0.069407 1.498138 -0.109558 0.129208 2.528313 -0.131598 0.673134 13.980643 -0.598178 -2.058727 18.659149 -0.190893 -2.134167 -6.032476 0.266480 0.645490 -1.251269 3.185572 4.267930 -7.866227 -6.094319 -107.557251 -74.152061 143.323142 -6.844444 -32.354448 -17.260414 -4.801239 -1.169226 0.741158 0.555200 -7.202339 11.992724 96.961594 -59.813923 -138.834233 -1.781799 -10.856123 10.338582 4.883870 -60.118028 9.927515 173.250702 85.050786 174.680679 -13.279736 -24.257831 10.240512 -0.011615 0.136683 -0.030116 2.197125 -58.078016 -0.912674 122.157018 77.288810 120.988848 -5.581801 -19.620898 -2.093972 0.023571 0.144498 -0.019261
-12.164623 52.586811 13.707179 -179.204258 -19.637530 -2.994061 0.867004 15.832763 -0.684462 0.071159 1.504782 -0.106248 0.129074 2.532895 -0.126796 0.675721 13.985643 -0.567602 -2.085115 18.643580 -0.237238 -2.141814 -6.045254 0.233860 0.646108 -1.238834 3.193001 4.254367 -7.852546 -6.056305 -107.557945 -74.213386 143.324338 -6.806336 -32.322981 -17.247666 -4.807759 -1.153987 0.789161 0.544711 -7.235750 11.916226 96.844980 -59.881768 -138.745835 -1.801867 -10.639742 10.241798 4.766988 -60.049787 10.072870 173.076876 85.114094 174.445644 -13.330234 -24.284318 10.265116 -0.004101 0.140949 -0.026939 2.157930 -58.053366 -0.864321 122.136393 77.288071 120.975546 -5.578649 -19.605257 -2.098912 0.017735 0.130720 -0.017201
